<?xml version="1.0" encoding="UTF-8"?>
<svg id="Layer_1" data-name="Layer 1" xmlns="http://www.w3.org/2000/svg" xmlns:xlink="http://www.w3.org/1999/xlink" viewBox="0 0 2000 2000">
  <defs>
    <style>
      .cls-1 {
        fill: #202020;
      }

      .cls-2 {
        fill: url(#linear-gradient);
      }
    </style>
    <linearGradient id="linear-gradient" x1="193.35" y1="721.45" x2="826.38" y2="1149.17" gradientUnits="userSpaceOnUse">
      <stop offset=".21" stop-color="#3ea240"/>
      <stop offset=".84" stop-color="#50d253"/>
      <stop offset="1" stop-color="#56e059"/>
    </linearGradient>
  </defs>
  <path class="cls-2" d="M608.5,998.53c39.55-42.8,36.9-109.8-5.91-149.35-19.68-18.19-44.98-28.07-71.62-28.07-1.42,0-2.85.03-4.28.08-28.21,1.11-54.29,13.15-73.45,33.88-19.16,20.74-29.1,47.69-27.98,75.9.65,16.48,5.03,32.23,12.69,46.3,5.45,10.02,12.57,19.19,21.2,27.16l187.04,172.81,126.61,116.99c-33.5,36.26-79.13,54.63-124.89,54.63-41.25,0-82.62-14.93-115.31-45.13l-188.81-174.45c-8.4-7.77-16.27-15.97-23.57-24.59-16.42-19.38-30-40.87-40.54-64.18-14.69-32.49-22.86-67.08-24.27-102.81-1.41-35.74,4-70.86,16.08-104.41,12.52-34.77,31.67-66.25,56.9-93.56,25.23-27.31,55.1-48.88,88.77-64.11,32.48-14.69,67.07-22.86,102.81-24.27,35.74-1.41,70.87,4,104.41,16.08,34.77,12.53,66.25,31.67,93.56,56.9,27.31,25.23,48.88,55.1,64.11,88.77,14.69,32.49,22.86,67.08,24.27,102.81,1.41,35.74-4,70.86-16.08,104.41-12.52,34.77-31.67,66.25-56.9,93.56-16.59,17.96-35.2,33.44-55.57,46.26l-138.56-128.03c25.6-2.01,50.53-13.28,69.29-33.59Z"/>
  <g>
    <path class="cls-1" d="M1134.91,842.98v103h43.91v-114.62c0-19.05-5.09-34.47-15.26-46.25-10.17-11.79-25.21-17.68-45.12-17.68-11.62,0-22.2,2.56-31.72,7.67-8.85,4.75-16.01,11.27-21.51,19.51-4.13-7.48-9.8-13.64-17.07-18.46-8.77-5.81-19.99-8.72-33.66-8.72-11.95,0-22.74,2.64-32.37,7.91-7.37,4.03-13.58,9.18-18.65,15.42v-19.13h-38.75v174.35h44.23v-105.58c0-10.01,2.77-18.16,8.31-24.46,5.54-6.3,12.89-9.44,22.04-9.44s17.09,3.2,22.52,9.6c5.43,6.4,8.15,15.36,8.15,26.88v103h43.91v-105.58c0-6.67,1.26-12.56,3.79-17.68,2.53-5.11,6.05-9.09,10.57-11.95,4.52-2.85,9.85-4.28,15.98-4.28,9.58,0,17.08,3.2,22.52,9.6,5.43,6.4,8.15,15.36,8.15,26.88Z"/>
    <polygon class="cls-1" points="1277.29 1023.46 1375.77 771.62 1331.86 771.62 1286.32 890.26 1240.49 771.62 1194.96 771.62 1265.29 944.6 1236.61 1023.46 1277.29 1023.46"/>
    <path class="cls-1" d="M1051.93,1060.49c-12.38-7.96-26.91-11.95-43.59-11.95s-30.51,4.04-41.81,12.11c-1.05.75-2.06,1.56-3.07,2.36v-9.63h-38.75v251.84h44.23v-83.58c11.31,7.28,25.19,10.93,41.65,10.93s30.08-4.03,42.13-12.11c12.05-8.07,21.44-19.05,28.17-32.93,6.72-13.88,10.09-29.54,10.09-46.98s-3.42-33.55-10.25-47.38c-6.84-13.83-16.44-24.72-28.82-32.69ZM1040.14,1167.28c-2.91,8.02-7.37,14.39-13.4,19.13-6.03,4.74-13.78,7.1-23.25,7.1s-17.62-2.21-23.49-6.62c-5.87-4.41-10.09-10.6-12.67-18.56-2.58-7.96-3.87-17.22-3.87-27.77s1.29-19.8,3.87-27.77c2.58-7.96,6.7-14.15,12.35-18.57,5.65-4.41,13.05-6.62,22.2-6.62,9.79,0,17.84,2.4,24.13,7.18,6.3,4.79,10.95,11.19,13.96,19.21,3.01,8.02,4.52,16.87,4.52,26.56s-1.45,18.7-4.36,26.72Z"/>
    <path class="cls-1" d="M1213.04,1052.98c-5.27.38-10.39,1.29-15.34,2.74-4.95,1.45-9.52,3.47-13.72,6.05-5.49,3.23-10.12,7.32-13.88,12.27-1.79,2.35-3.4,4.83-4.84,7.43v-28.09h-38.74v174.35h44.23v-89.11c0-6.67.91-12.67,2.74-18,1.83-5.33,4.52-9.95,8.07-13.88,3.55-3.93,7.91-7.08,13.08-9.44,5.17-2.47,10.95-3.95,17.35-4.44,6.4-.48,12.03.03,16.87,1.53v-41.01c-5.27-.65-10.55-.78-15.82-.4Z"/>
    <path class="cls-1" d="M1381.01,1060.32c-13.29-7.86-28.71-11.79-46.25-11.79s-32.45,3.88-45.69,11.62c-13.24,7.75-23.63,18.54-31.16,32.37-7.53,13.83-11.3,29.84-11.3,48.03s3.69,33.88,11.06,47.7c7.37,13.83,17.68,24.67,30.91,32.53,13.24,7.85,28.63,11.78,46.17,11.78s32.8-3.9,46.09-11.7c13.29-7.8,23.68-18.62,31.16-32.45,7.48-13.83,11.22-29.79,11.22-47.87s-3.71-33.87-11.14-47.7c-7.43-13.83-17.79-24.67-31.08-32.53ZM1366.32,1177.29c-6.94,9.52-17.46,14.29-31.56,14.29s-24.03-4.6-31.08-13.8c-7.05-9.2-10.57-21.6-10.57-37.21,0-10.12,1.48-18.99,4.44-26.64,2.96-7.64,7.51-13.61,13.64-17.92,6.13-4.3,13.99-6.46,23.57-6.46,13.88,0,24.35,4.63,31.4,13.88,7.05,9.26,10.57,21.63,10.57,37.13s-3.47,27.2-10.41,36.73Z"/>
    <path class="cls-1" d="M1520.74,990.66c-5.92.16-12.03,1.35-18.32,3.55-6.3,2.21-12.14,6.32-17.52,12.35-4.2,4.63-7.08,9.79-8.64,15.5-1.56,5.71-2.45,11.36-2.66,16.95-.21,5.33-.31,10.11-.32,14.37h-27.45v33.9h27.44v140.45h43.91v-140.45h40.36v-33.9h-40.36v-9.69c0-4.84,1.67-9.01,5-12.51,3.33-3.5,8.45-5.25,15.34-5.25h20.02v-35.52h-21.63c-4.2,0-9.26.08-15.18.24Z"/>
    <polygon class="cls-1" points="1700.9 1053.38 1655.35 1172.02 1609.52 1053.38 1564 1053.38 1634.33 1226.36 1605.65 1305.23 1646.33 1305.23 1744.81 1053.38 1700.9 1053.38"/>
  </g>
</svg>